<mxfile host="app.diagrams.net" modified="2024-06-11T13:22:19.112Z" agent="Mozilla/5.0 (Windows NT 10.0; Win64; x64; rv:126.0) Gecko/20100101 Firefox/126.0" version="24.5.3" etag="YbJHTHTSR5lVbhFUnbvL" type="github">
  <diagram name="Seite-1" id="9B6kMlZnGUiA0mtmAdac">
    <mxGraphModel>
      <root>
        <mxCell id="0" />
        <mxCell id="1" parent="0" />
      </root>
    </mxGraphModel>
  </diagram>
</mxfile>
